<?xml version="1.0" encoding="UTF-8"?>
<svg width="1113px" height="1017px" viewBox="0 0 1113 1017" version="1.1" xmlns="http://www.w3.org/2000/svg" xmlns:xlink="http://www.w3.org/1999/xlink">
    <!-- Generator: Sketch 52.6 (67491) - http://www.bohemiancoding.com/sketch -->
    <title>tld_eus_col-positive</title>
    <defs>
        <circle id="path-1" cx="585.5" cy="500.5" r="452.5"></circle>
        <filter x="-10.9%" y="-8.0%" width="121.9%" height="121.9%" filterUnits="objectBoundingBox" id="filter-2">
            <feMorphology radius="5.5" operator="dilate" in="SourceAlpha" result="shadowSpreadOuter1"></feMorphology>
            <feOffset dx="0" dy="27" in="shadowSpreadOuter1" result="shadowOffsetOuter1"></feOffset>
            <feGaussianBlur stdDeviation="23" in="shadowOffsetOuter1" result="shadowBlurOuter1"></feGaussianBlur>
            <feColorMatrix values="0 0 0 0 0   0 0 0 0 0   0 0 0 0 0  0 0 0 0.13 0" type="matrix" in="shadowBlurOuter1"></feColorMatrix>
        </filter>
        <polygon id="path-3" points="0 0.2711 199.3348 0.2711 199.3348 199.6061 0 199.6061"></polygon>
        <polygon id="path-5" points="0.0633140754 0.211291009 179.004 0.211291009 179.004 204.9996 0.0633140754 204.9996"></polygon>
    </defs>
    <g id="tld_eus_col-positive" stroke="none" stroke-width="1" fill="none" fill-rule="evenodd">
        <g id="Oval" fill-rule="nonzero">
            <use fill="black" fill-opacity="1" filter="url(#filter-2)" xlink:href="#path-1"></use>
            <use fill="#FFFFFF" xlink:href="#path-1"></use>
        </g>
        <g id="Group-11" transform="translate(33.000000, 313.000000)">
            <g id="Group-3" transform="translate(0.000000, 0.729000)">
                <mask id="mask-4" fill="white">
                    <use xlink:href="#path-3"></use>
                </mask>
                <g id="Clip-2"></g>
                <path d="M199.3348,99.9381 C199.3348,154.9831 154.7118,199.6061 99.6678,199.6061 C44.6228,199.6061 -0.0002,154.9831 -0.0002,99.9381 C-0.0002,44.8941 44.6228,0.2711 99.6678,0.2711 C154.7118,0.2711 199.3348,44.8941 199.3348,99.9381" id="Fill-1" fill="#AFD400" mask="url(#mask-4)"></path>
            </g>
            <path d="M584.0619,266.5235 C575.5469,278.5745 565.8899,288.5845 552.4269,293.9735 C530.7449,302.6525 508.3119,304.0965 485.8209,298.0515 C466.7529,292.9275 456.4129,278.3495 457.3179,256.3445 C457.9979,239.8025 460.8389,223.3015 463.4569,206.8995 C466.4199,188.3355 470.2129,169.9025 473.6239,151.4095 C473.8329,150.2745 473.8529,149.1055 474.0069,147.4545 C468.4709,147.4545 463.0259,146.9845 457.7039,147.5875 C452.5509,148.1715 450.2039,145.7765 449.1449,141.4725 C444.8379,123.9775 448.8209,111.3885 466.7129,105.9935 C474.9159,103.5195 483.6549,102.1205 492.2199,101.7265 C503.6409,101.2015 515.2189,101.3385 526.5649,102.6325 C541.3989,104.3245 547.3219,112.5305 545.0849,127.1505 C540.4039,157.7525 535.2769,188.2865 530.4939,218.8735 C529.3389,226.2625 528.4879,233.7325 528.0859,241.1975 C527.6679,248.9585 530.9159,252.6505 538.3349,254.1325 C554.4039,257.3445 573.2759,249.3235 581.6799,235.4565 C582.9089,233.4275 583.3549,230.7915 583.6869,228.3715 C588.1239,196.0425 592.4139,163.6935 596.9159,131.3735 C597.5779,126.6235 598.8499,121.9025 600.3529,117.3365 C603.3639,108.1915 609.5919,102.3195 619.3189,101.0595 C634.4339,99.1005 649.2079,100.2915 663.3329,106.6435 C667.0789,108.3285 668.2619,110.5705 667.6779,114.7795 C662.0279,155.5115 656.5749,196.2705 651.1179,237.0295 C650.6769,240.3235 650.5249,243.6675 650.4229,246.9945 C650.2659,252.1785 652.2819,254.5535 657.4489,254.5445 C662.0889,254.5365 666.8109,254.2645 671.3429,253.3495 C674.7779,252.6555 676.6589,253.8815 678.5099,256.3235 C685.7799,265.9105 683.6579,281.8855 673.0009,289.2725 C667.1379,293.3355 660.0859,296.2635 653.1459,298.0805 C637.0549,302.2935 620.4569,302.5015 603.9789,301.2625 C588.4069,300.0935 582.2529,292.4975 582.9129,276.8255 C583.0569,273.3805 583.6659,269.9575 584.0619,266.5235" id="Fill-4" fill="#000000"></path>
            <path d="M319.8641,184.9659 C329.4491,184.9659 338.7891,185.7489 347.9191,184.7019 C354.4581,183.9529 361.2421,181.6789 366.9721,178.4219 C374.7151,174.0189 377.3941,163.7569 374.6571,155.0629 C372.4281,147.9849 366.2981,144.4529 356.2931,144.4849 C338.0131,144.5419 320.5671,163.1459 319.8641,184.9659 M316.3621,216.0919 C314.8141,230.9739 323.7171,245.5029 337.7681,250.4959 C352.7631,255.8229 368.0681,254.3199 383.1021,250.8289 C391.8041,248.8089 400.3071,245.6619 408.6121,242.3089 C412.5751,240.7089 415.2161,241.5209 418.0821,243.9129 C427.3811,251.6769 429.5921,267.2929 422.6981,277.5709 C416.7341,286.4649 407.7481,291.1539 397.9901,294.4419 C375.0391,302.1719 351.3211,303.1609 327.4111,301.8489 C313.8691,301.1049 300.6451,298.6339 288.1351,293.1659 C266.9061,283.8889 253.4061,267.8079 249.1281,245.2009 C242.8451,211.9939 246.4621,179.7029 263.0871,149.8469 C278.7611,121.6969 303.9641,106.8099 335.1891,101.6169 C354.6111,98.3869 374.0201,98.3609 393.0051,104.5209 C432.8311,117.4429 446.4061,165.5649 418.6031,195.6769 C407.3251,207.8919 392.2481,212.7699 376.4101,215.4219 C357.4201,218.6019 338.3261,219.1439 319.2031,216.4269 C318.2601,216.2929 317.3101,216.2029 316.3621,216.0919" id="Fill-6" fill="#000000"></path>
            <g id="Group-10" transform="translate(688.000000, 97.729000)">
                <mask id="mask-6" fill="white">
                    <use xlink:href="#path-5"></use>
                </mask>
                <g id="Clip-9"></g>
                <path d="M75.598,204.9996 C51.947,203.7356 33.582,203.0266 16.758,194.4536 C3.331,187.6106 -2.33,176.4786 0.993,162.3906 C1.977,158.2136 4.313,153.9706 7.118,150.6876 C12.802,144.0356 15.807,143.9286 23.794,147.4486 C42.36,155.6316 61.853,159.3186 82.109,158.7026 C92.837,158.3756 99.001,151.6876 95.819,143.5206 C94.635,140.4836 91.498,137.4226 88.487,136.0406 C80.811,132.5156 72.68,129.9886 64.776,126.9476 C59.66,124.9806 54.457,123.1386 49.577,120.6786 C26.788,109.1956 16.374,90.2996 18.513,64.8146 C20.91,36.2416 39.249,14.7496 69.703,5.9246 C96.859,-1.9434 124.316,-1.1454 151.694,5.0326 C155.538,5.9006 159.261,7.6076 162.827,9.3606 C185.241,20.3776 182.31,49.8236 166.543,61.0006 C163.924,62.8576 161.864,63.1956 158.86,61.8346 C143.335,54.8056 127.031,51.1476 109.936,51.6616 C106.499,51.7646 102.977,52.4156 99.696,53.4516 C95.84,54.6676 93.171,57.3756 92.744,61.7246 C92.295,66.3086 92.915,70.6936 97.395,72.9616 C104.35,76.4826 111.633,79.3516 118.609,82.8346 C127.949,87.4986 137.668,91.6876 146.253,97.5136 C160.284,107.0326 165.072,121.5836 164.555,137.9816 C163.337,176.6376 139.09,195.3596 107.002,201.5456 C94.979,203.8636 82.586,204.2696 75.598,204.9996" id="Fill-8" fill="#000000" mask="url(#mask-6)"></path>
            </g>
        </g>
    </g>
</svg>