<?xml version="1.0" encoding="UTF-8"?>
<!DOCTYPE svg PUBLIC "-//W3C//DTD SVG 1.1//EN" "http://www.w3.org/Graphics/SVG/1.1/DTD/svg11.dtd">
<!-- Creator: CorelDRAW X7 -->
<svg xmlns="http://www.w3.org/2000/svg" xml:space="preserve" width="117.028mm" height="69.6588mm" version="1.1" style="shape-rendering:geometricPrecision; text-rendering:geometricPrecision; image-rendering:optimizeQuality; fill-rule:evenodd; clip-rule:evenodd"
viewBox="0 0 786 468"
 xmlns:xlink="http://www.w3.org/1999/xlink">
 <defs>
  <style type="text/css">
   <![CDATA[
    .fil0 {fill:#065174;fill-rule:nonzero}
   ]]>
  </style>
 </defs>
 <g id="Layer_x0020_1">
  <metadata id="CorelCorpID_0Corel-Layer"/>
  <path class="fil0" d="M68 0c24,0 42,17 55,52l122 245c8,14 17,20 29,20 15,0 33,-25 52,-77 2,-6 3,-12 3,-18 0,-13 -12,-42 -36,-86 -35,-70 -53,-107 -53,-111l0 -6c2,-13 11,-19 26,-19l41 0c25,0 43,15 54,45 10,20 21,29 32,29 12,0 25,-14 38,-42 11,-21 26,-32 46,-32l43 0c15,0 23,6 25,19l0 3c0,7 -9,28 -27,62 -19,36 -33,64 -42,85 -10,21 -15,35 -17,41l-2 13c0,17 11,45 35,83 7,7 15,11 22,11 14,0 30,-20 46,-61l118 -235c11,-14 24,-21 39,-21l43 0c12,0 20,4 25,13l1 6 0 6c0,2 -4,10 -10,24 -7,14 -16,33 -29,59l-166 336c-11,16 -24,24 -41,24l-53 0c-24,0 -43,-19 -57,-56 -13,-26 -24,-39 -34,-39l-7 0c-12,0 -28,22 -46,66 -11,19 -25,29 -44,29l-53 0c-21,0 -36,-12 -47,-35 -129,-259 -195,-394 -198,-404 -1,-1 -1,-2 -1,-4l0 -6c0,-11 8,-17 24,-19l44 0z"/>
 </g>
</svg>
